<?xml version="1.0" encoding="UTF-8" standalone="no"?>
<!DOCTYPE svg PUBLIC "-//W3C//DTD SVG 1.1//EN" "http://www.w3.org/Graphics/SVG/1.1/DTD/svg11.dtd">
<svg width="100%" height="100%" viewBox="0 0 125 120" version="1.1" xmlns="http://www.w3.org/2000/svg" xmlns:xlink="http://www.w3.org/1999/xlink" xml:space="preserve" style="fill-rule:evenodd;clip-rule:evenodd;stroke-linejoin:round;stroke-miterlimit:1.41421;">
  <symbol id="skip" viewBox="0 0 125 120">
    <path id="path5897.-6.-5.-97" d="M62.625,-0.005c-15.355,-0.02 -30.769,5.799 -42.5,17.5c-23.462,23.4 -23.526,61.413 -0.125,84.875c23.401,23.462 61.413,23.525 84.875,0.124c23.462,-23.401 23.526,-61.413 0.125,-84.875c-11.701,-11.731 -27.02,-17.605 -42.375,-17.625l0,0.001Zm-0.125,20c7,0.008 14.031,1.84 20.25,5.5l-54.75,54.75c-9.041,-15.352 -6.947,-35.462 6.25,-48.625c7.821,-7.801 18.013,-11.639 28.25,-11.625Zm34.5,19.625c9.104,15.362 6.974,35.56 -6.25,48.75c-13.211,13.176 -33.291,15.113 -48.625,6l54.875,-54.75Z" style="fill:inherit;"/>
  </symbol>
</svg>
