<?xml version="1.0" encoding="UTF-8" standalone="no"?><!DOCTYPE svg PUBLIC "-//W3C//DTD SVG 1.1//EN" "http://www.w3.org/Graphics/SVG/1.1/DTD/svg11.dtd">
<svg width="100%" height="100%" viewBox="0 0 200 200" version="1.1" xmlns="http://www.w3.org/2000/svg" xmlns:xlink="http://www.w3.org/1999/xlink" xml:space="preserve" style="fill-rule:evenodd;clip-rule:evenodd;stroke-linejoin:round;stroke-miterlimit:1.41421;">
  <symbol id="wild" viewBox="0 0 200 200">
    <path id="path3773.-0.-4.-8.-8.-7.-9.-0.-9.-1.-07" d="M11.75,100c-7.513,18.542 -11.75,38.763 -11.75,60c0,22.091 17.909,40 40,40l60,-100l-88.25,0Z" style="fill:#fa0;"/>
    <path id="path3773.-0.-4.-8.-8.-5.-6.-5.-0.-08.-2.-6" d="M100,100l-60,100c67.129,0 124.502,-41.389 148.25,-100l-88.25,0Z" style="fill:#0a0;"/>
    <path id="path3773.-0.-4.-8.-8.-1.-4.-3.-1.-0.-0" d="M160,0c-67.129,0 -124.502,41.389 -148.25,100l88.25,0l60,-100Z" style="fill:#f55;"/>
    <path id="path3773.-0.-4.-8.-8.-5.-8.-3.-9.-4.-9.-1" d="M160,0l-60,100l88.25,0c7.513,-18.542 11.75,-38.763 11.75,-60c0,-22.091 -17.909,-40 -40,-40Z" style="fill:#55f;"/>
    <path id="path3773.-0.-4.-8.-8.-7.-9.-0.-03.-8.-0.-6.-9" d="M160.271,-1.999l0.271,0.002l0.271,0.005l0.27,0.006l0.27,0.007l0.269,0.01l0.269,0.011l0.269,0.013l0.268,0.014l0.267,0.016l0.268,0.018l0.266,0.019l0.267,0.022l0.266,0.022l0.265,0.025l0.265,0.026l0.264,0.027l0.264,0.03l0.264,0.031l0.263,0.032l0.262,0.035l0.262,0.035l0.262,0.038l0.261,0.039l0.26,0.04l0.26,0.043l0.259,0.044l0.259,0.045l0.259,0.047l0.257,0.048l0.258,0.051l0.256,0.051l0.256,0.053l0.256,0.055l0.255,0.057l0.254,0.058l0.254,0.059l0.253,0.061l0.253,0.062l0.252,0.064l0.251,0.066l0.251,0.067l0.25,0.068l0.25,0.07l0.249,0.072l0.248,0.073l0.248,0.075l0.247,0.076l0.246,0.077l0.246,0.079l0.245,0.08l0.244,0.082l0.244,0.084l0.243,0.084l0.242,0.086l0.242,0.088l0.241,0.089l0.24,0.091l0.24,0.092l0.239,0.093l0.238,0.095l0.237,0.096l0.237,0.097l0.236,0.099l0.235,0.101l0.235,0.101l0.233,0.104l0.233,0.104l0.233,0.106l0.231,0.107l0.231,0.109l0.23,0.11l0.229,0.111l0.228,0.113l0.228,0.114l0.227,0.115l0.226,0.117l0.225,0.117l0.224,0.12l0.224,0.12l0.223,0.122l0.222,0.123l0.221,0.125l0.22,0.126l0.22,0.127l0.218,0.128l0.218,0.13l0.217,0.131l0.216,0.132l0.215,0.133l0.215,0.135l0.213,0.136l0.213,0.137l0.211,0.139l0.211,0.139l0.21,0.141l0.209,0.142l0.208,0.144l0.207,0.144l0.207,0.146l0.205,0.147l0.204,0.148l0.204,0.149l0.202,0.151l0.202,0.152l0.201,0.153l0.2,0.154l0.198,0.155l0.198,0.156l0.197,0.158l0.196,0.159l0.195,0.16l0.194,0.161l0.193,0.162l0.192,0.163l0.191,0.164l0.189,0.166l0.189,0.167l0.188,0.167l0.187,0.169l0.186,0.17l0.185,0.171l0.184,0.172l0.183,0.174l0.181,0.174l0.181,0.175l0.18,0.177l0.179,0.178l0.177,0.178l0.177,0.18l0.175,0.181l0.174,0.181l0.174,0.183l0.172,0.184l0.171,0.185l0.17,0.186l0.169,0.187l0.167,0.188l0.167,0.189l0.166,0.19l0.164,0.19l0.163,0.192l0.162,0.193l0.162,0.194l0.159,0.195l0.159,0.196l0.158,0.197l0.156,0.198l0.155,0.199l0.154,0.199l0.153,0.201l0.152,0.202l0.151,0.202l0.149,0.204l0.148,0.204l0.147,0.205l0.146,0.207l0.144,0.207l0.144,0.208l0.142,0.209l0.141,0.21l0.139,0.211l0.139,0.211l0.137,0.213l0.136,0.213l0.135,0.215l0.133,0.215l0.132,0.216l0.131,0.217l0.13,0.218l0.128,0.218l0.127,0.22l0.126,0.22l0.125,0.221l0.123,0.222l0.122,0.223l0.12,0.224l0.12,0.224l0.118,0.225l0.116,0.226l0.115,0.227l0.114,0.228l0.113,0.228l0.111,0.229l0.11,0.23l0.109,0.231l0.107,0.231l0.106,0.233l0.104,0.233l0.104,0.233l0.101,0.235l0.101,0.235l0.099,0.236l0.097,0.237l0.096,0.237l0.095,0.238l0.093,0.239l0.092,0.24l0.091,0.24l0.089,0.241l0.088,0.242l0.086,0.242l0.084,0.243l0.084,0.244l0.082,0.244l0.08,0.245l0.079,0.246l0.077,0.246l0.076,0.247l0.075,0.248l0.073,0.248l0.071,0.249l0.071,0.25l0.068,0.25l0.067,0.251l0.066,0.251l0.064,0.252l0.062,0.253l0.061,0.253l0.059,0.254l0.058,0.254l0.057,0.255l0.054,0.256l0.054,0.256l0.051,0.256l0.051,0.258l0.048,0.257l0.047,0.259l0.045,0.259l0.044,0.259l0.043,0.26l0.04,0.26l0.039,0.261l0.038,0.262l0.035,0.262l0.035,0.262l0.032,0.263l0.031,0.264l0.03,0.264l0.027,0.264l0.026,0.265l0.025,0.265l0.023,0.266l0.021,0.267l0.019,0.266l0.018,0.268l0.016,0.267l0.014,0.268l0.013,0.269l0.011,0.269l0.01,0.269l0.007,0.27l0.006,0.27l0.005,0.271l0.002,0.271l0.001,0.269l-0.001,0.506l-0.002,0.503l-0.004,0.503l-0.006,0.503l-0.007,0.502l-0.008,0.502l-0.01,0.502l-0.012,0.501l-0.013,0.5l-0.015,0.501l-0.016,0.5l-0.018,0.499l-0.02,0.499l-0.021,0.499l-0.022,0.498l-0.024,0.498l-0.026,0.498l-0.027,0.497l-0.028,0.497l-0.031,0.496l-0.031,0.496l-0.033,0.495l-0.035,0.495l-0.036,0.495l-0.038,0.494l-0.039,0.494l-0.041,0.493l-0.042,0.493l-0.043,0.493l-0.046,0.492l-0.046,0.492l-0.048,0.491l-0.05,0.491l-0.051,0.49l-0.053,0.49l-0.054,0.489l-0.055,0.489l-0.057,0.489l-0.058,0.488l-0.06,0.488l-0.062,0.487l-0.062,0.486l-0.065,0.487l-0.065,0.486l-0.068,0.485l-0.068,0.485l-0.07,0.484l-0.072,0.484l-0.073,0.484l-0.074,0.483l-0.076,0.482l-0.077,0.482l-0.079,0.482l-0.08,0.481l-0.081,0.481l-0.083,0.48l-0.085,0.48l-0.085,0.479l-0.088,0.478l-0.088,0.479l-0.09,0.477l-0.091,0.477l-0.093,0.477l-0.094,0.476l-0.096,0.476l-0.097,0.475l-0.098,0.475l-0.1,0.474l-0.101,0.474l-0.102,0.473l-0.104,0.473l-0.105,0.472l-0.107,0.472l-0.108,0.471l-0.109,0.47l-0.111,0.47l-0.112,0.47l-0.113,0.469l-0.115,0.468l-0.116,0.468l-0.118,0.468l-0.119,0.467l-0.12,0.466l-0.121,0.466l-0.123,0.465l-0.124,0.465l-0.126,0.464l-0.126,0.464l-0.129,0.463l-0.129,0.462l-0.131,0.462l-0.132,0.462l-0.133,0.461l-0.135,0.46l-0.136,0.46l-0.137,0.459l-0.139,0.459l-0.14,0.458l-0.141,0.457l-0.143,0.457l-0.143,0.456l-0.146,0.456l-0.146,0.455l-0.148,0.455l-0.149,0.454l-0.15,0.454l-0.151,0.452l-0.153,0.453l-0.154,0.452l-0.155,0.451l-0.157,0.45l-0.158,0.45l-0.159,0.45l-0.16,0.448l-0.162,0.448l-0.163,0.448l-0.164,0.447l-0.165,0.446l-0.167,0.446l-0.168,0.445l-0.169,0.445l-0.17,0.444l-0.171,0.443l-0.173,0.443l-0.174,0.442l-0.175,0.441l-0.177,0.441l-0.177,0.44l-0.142,0.348l-0.142,0.347l-0.143,0.346l-0.143,0.347l-0.145,0.346l-0.145,0.345l-0.146,0.345l-0.146,0.345l-0.148,0.344l-0.148,0.344l-0.149,0.344l-0.15,0.343l-0.15,0.342l-0.152,0.343l-0.152,0.341l-0.153,0.342l-0.153,0.341l-0.155,0.34l-0.155,0.341l-0.156,0.339l-0.156,0.34l-0.158,0.339l-0.158,0.338l-0.159,0.338l-0.159,0.338l-0.161,0.337l-0.161,0.337l-0.162,0.336l-0.162,0.336l-0.164,0.335l-0.164,0.335l-0.165,0.335l-0.166,0.334l-0.166,0.334l-0.167,0.333l-0.168,0.333l-0.169,0.332l-0.169,0.332l-0.17,0.332l-0.171,0.331l-0.171,0.331l-0.173,0.33l-0.173,0.33l-0.173,0.329l-0.175,0.329l-0.175,0.328l-0.176,0.328l-0.177,0.328l-0.177,0.327l-0.178,0.327l-0.179,0.326l-0.18,0.325l-0.18,0.326l-0.181,0.324l-0.182,0.325l-0.182,0.324l-0.184,0.323l-0.183,0.323l-0.185,0.323l-0.185,0.322l-0.186,0.321l-0.187,0.321l-0.188,0.321l-0.188,0.32l-0.189,0.32l-0.189,0.319l-0.191,0.319l-0.191,0.318l-0.191,0.318l-0.193,0.317l-0.193,0.317l-0.194,0.316l-0.194,0.316l-0.196,0.316l-0.196,0.315l-0.196,0.314l-0.198,0.314l-0.198,0.313l-0.198,0.313l-0.2,0.313l-0.2,0.312l-0.201,0.312l-0.201,0.311l-0.202,0.31l-0.203,0.31l-0.204,0.31l-0.204,0.309l-0.205,0.309l-0.205,0.308l-0.207,0.307l-0.207,0.307l-0.207,0.307l-0.209,0.306l-0.209,0.306l-0.209,0.305l-0.211,0.304l-0.211,0.304l-0.212,0.304l-0.212,0.303l-0.213,0.303l-0.214,0.302l-0.214,0.301l-0.215,0.301l-0.216,0.301l-0.216,0.3l-0.217,0.299l-0.218,0.299l-0.219,0.299l-0.219,0.298l-0.219,0.297l-0.221,0.297l-0.221,0.297l-0.221,0.295l-0.223,0.296l-0.223,0.295l-0.224,0.294l-0.224,0.294l-0.225,0.293l-0.225,0.293l-0.227,0.292l-0.227,0.292l-0.227,0.291l-0.228,0.29l-0.229,0.29l-0.23,0.29l-0.23,0.289l-0.231,0.288l-0.231,0.288l-0.232,0.288l-0.233,0.286l-0.233,0.287l-0.234,0.285l-0.235,0.286l-0.235,0.284l-0.236,0.285l-0.237,0.283l-0.237,0.283l-0.238,0.283l-0.238,0.281l-0.239,0.282l-0.24,0.281l-0.24,0.28l-0.241,0.28l-0.242,0.279l-0.242,0.278l-0.243,0.278l-0.243,0.278l-0.244,0.277l-0.245,0.276l-0.245,0.276l-0.246,0.275l-0.247,0.275l-0.247,0.274l-0.247,0.274l-0.249,0.273l-0.249,0.272l-0.249,0.272l-0.251,0.271l-0.25,0.271l-0.252,0.27l-0.252,0.269l-0.252,0.269l-0.254,0.269l-0.253,0.268l-0.255,0.267l-0.255,0.267l-0.256,0.266l-0.256,0.265l-0.257,0.265l-0.257,0.264l-0.258,0.264l-0.259,0.263l-0.259,0.263l-0.26,0.262l-0.26,0.261l-0.261,0.261l-0.262,0.26l-0.262,0.26l-0.263,0.259l-0.263,0.258l-0.264,0.258l-0.264,0.257l-0.265,0.257l-0.266,0.256l-0.266,0.256l-0.267,0.254l-0.268,0.255l-0.268,0.253l-0.268,0.253l-0.269,0.253l-0.27,0.252l-0.27,0.251l-0.271,0.25l-0.272,0.25l-0.272,0.25l-0.272,0.249l-0.273,0.248l-0.274,0.247l-0.274,0.247l-0.275,0.246l-0.275,0.246l-0.276,0.245l-0.277,0.245l-0.277,0.244l-0.278,0.243l-0.278,0.242l-0.279,0.242l-0.279,0.242l-0.28,0.24l-0.28,0.24l-0.281,0.24l-0.282,0.239l-0.282,0.238l-0.282,0.237l-0.283,0.237l-0.284,0.237l-0.284,0.235l-0.285,0.235l-0.286,0.235l-0.285,0.234l-0.287,0.233l-0.287,0.232l-0.287,0.232l-0.288,0.231l-0.289,0.231l-0.289,0.23l-0.29,0.229l-0.29,0.228l-0.291,0.228l-0.291,0.228l-0.292,0.226l-0.292,0.226l-0.293,0.226l-0.293,0.224l-0.294,0.224l-0.295,0.224l-0.295,0.222l-0.295,0.223l-0.296,0.221l-0.296,0.221l-0.298,0.22l-0.297,0.219l-0.298,0.219l-0.299,0.218l-0.299,0.218l-0.299,0.216l-0.301,0.216l-0.3,0.216l-0.301,0.215l-0.302,0.214l-0.302,0.213l-0.303,0.213l-0.303,0.212l-0.304,0.211l-0.304,0.211l-0.305,0.21l-0.305,0.209l-0.306,0.209l-0.306,0.208l-0.307,0.207l-0.307,0.207l-0.308,0.206l-0.308,0.205l-0.309,0.205l-0.309,0.204l-0.309,0.203l-0.311,0.202l-0.31,0.202l-0.312,0.201l-0.311,0.201l-0.312,0.2l-0.313,0.199l-0.313,0.198l-0.314,0.198l-0.314,0.197l-0.314,0.196l-0.315,0.195l-0.316,0.195l-0.316,0.194l-0.316,0.194l-0.317,0.192l-0.318,0.193l-0.318,0.191l-0.318,0.19l-0.319,0.19l-0.319,0.19l-0.32,0.188l-0.32,0.188l-0.321,0.187l-0.321,0.186l-0.322,0.186l-0.322,0.185l-0.323,0.184l-0.323,0.183l-0.323,0.183l-0.324,0.182l-0.325,0.182l-0.325,0.18l-0.325,0.18l-0.326,0.179l-0.326,0.179l-0.327,0.177l-0.327,0.177l-0.328,0.176l-0.328,0.176l-0.329,0.175l-0.328,0.174l-0.33,0.173l-0.33,0.172l-0.33,0.172l-0.331,0.171l-0.331,0.171l-0.332,0.169l-0.332,0.169l-0.332,0.168l-0.333,0.168l-0.334,0.166l-0.334,0.166l-0.334,0.165l-0.335,0.165l-0.335,0.163l-0.336,0.163l-0.336,0.162l-0.336,0.162l-0.337,0.16l-0.337,0.16l-0.338,0.159l-0.338,0.159l-0.339,0.157l-0.339,0.157l-0.339,0.156l-0.34,0.155l-0.34,0.155l-0.341,0.154l-0.341,0.153l-0.342,0.152l-0.342,0.152l-0.342,0.15l-0.343,0.15l-0.343,0.15l-0.344,0.148l-0.344,0.148l-0.344,0.146l-0.345,0.147l-0.345,0.145l-0.346,0.144l-0.346,0.144l-0.347,0.143l-0.347,0.142l-0.347,0.142l-0.348,0.141l-0.348,0.139l-0.348,0.14l-0.349,0.138l-0.349,0.137l-0.35,0.137l-0.35,0.136l-0.35,0.135l-0.351,0.135l-0.352,0.133l-0.351,0.133l-0.352,0.132l-0.353,0.131l-0.352,0.13l-0.354,0.13l-0.353,0.129l-0.354,0.128l-0.355,0.127l-0.354,0.126l-0.355,0.126l-0.356,0.125l-0.356,0.124l-0.356,0.123l-0.357,0.122l-0.357,0.122l-0.357,0.121l-0.358,0.12l-0.358,0.119l-0.358,0.118l-0.359,0.117l-0.359,0.117l-0.36,0.116l-0.36,0.115l-0.36,0.114l-0.361,0.114l-0.361,0.112l-0.361,0.112l-0.362,0.111l-0.362,0.11l-0.363,0.11l-0.363,0.108l-0.363,0.108l-0.363,0.106l-0.364,0.106l-0.365,0.106l-0.364,0.104l-0.365,0.103l-0.366,0.103l-0.365,0.102l-0.366,0.101l-0.367,0.1l-0.366,0.099l-0.367,0.099l-0.368,0.098l-0.368,0.096l-0.368,0.096l-0.368,0.095l-0.369,0.095l-0.369,0.093l-0.369,0.093l-0.37,0.091l-0.37,0.091l-0.371,0.09l-0.37,0.09l-0.372,0.088l-0.371,0.087l-0.372,0.087l-0.372,0.086l-0.372,0.085l-0.373,0.084l-0.373,0.083l-0.374,0.082l-0.373,0.082l-0.374,0.08l-0.375,0.08l-0.374,0.079l-0.375,0.078l-0.376,0.077l-0.375,0.076l-0.376,0.076l-0.377,0.074l-0.376,0.074l-0.377,0.073l-0.377,0.072l-0.378,0.071l-0.378,0.07l-0.378,0.069l-0.378,0.069l-0.379,0.067l-0.379,0.067l-0.379,0.066l-0.38,0.065l-0.38,0.064l-0.38,0.063l-0.381,0.062l-0.381,0.061l-0.381,0.061l-0.381,0.059l-0.382,0.059l-0.382,0.058l-0.382,0.057l-0.383,0.056l-0.383,0.055l-0.383,0.054l-0.383,0.054l-0.384,0.052l-0.384,0.052l-0.385,0.05l-0.384,0.05l-0.385,0.049l-0.385,0.048l-0.386,0.047l-0.386,0.046l-0.385,0.045l-0.387,0.045l-0.386,0.043l-0.387,0.043l-0.387,0.041l-0.388,0.041l-0.387,0.04l-0.388,0.038l-0.389,0.038l-0.388,0.037l-0.389,0.037l-0.389,0.035l-0.389,0.034l-0.389,0.033l-0.39,0.033l-0.39,0.031l-0.391,0.031l-0.39,0.03l-0.391,0.028l-0.391,0.028l-0.391,0.027l-0.392,0.026l-0.392,0.025l-0.392,0.024l-0.392,0.023l-0.393,0.023l-0.393,0.021l-0.393,0.02l-0.393,0.02l-0.394,0.018l-0.394,0.018l-0.394,0.016l-0.394,0.016l-0.394,0.015l-0.395,0.014l-0.395,0.012l-0.396,0.012l-0.395,0.011l-0.396,0.01l-0.396,0.009l-0.396,0.008l-0.396,0.008l-0.397,0.006l-0.397,0.005l-0.397,0.004l-0.398,0.004l-0.397,0.002l-0.398,0.002l-0.4,0l-0.269,-0.001l-0.271,-0.002l-0.271,-0.005l-0.27,-0.006l-0.27,-0.007l-0.269,-0.01l-0.269,-0.011l-0.269,-0.013l-0.268,-0.014l-0.267,-0.016l-0.268,-0.018l-0.266,-0.019l-0.267,-0.021l-0.266,-0.023l-0.265,-0.025l-0.265,-0.026l-0.264,-0.027l-0.264,-0.03l-0.264,-0.031l-0.263,-0.032l-0.262,-0.035l-0.262,-0.035l-0.262,-0.038l-0.261,-0.039l-0.26,-0.04l-0.26,-0.043l-0.259,-0.044l-0.259,-0.045l-0.259,-0.047l-0.257,-0.048l-0.258,-0.051l-0.256,-0.051l-0.256,-0.054l-0.256,-0.054l-0.255,-0.057l-0.254,-0.058l-0.254,-0.059l-0.253,-0.061l-0.253,-0.062l-0.252,-0.064l-0.251,-0.066l-0.251,-0.067l-0.25,-0.068l-0.25,-0.071l-0.249,-0.071l-0.248,-0.073l-0.248,-0.075l-0.247,-0.076l-0.246,-0.077l-0.246,-0.079l-0.245,-0.08l-0.244,-0.082l-0.244,-0.084l-0.243,-0.084l-0.242,-0.086l-0.242,-0.088l-0.241,-0.089l-0.24,-0.091l-0.24,-0.092l-0.239,-0.093l-0.238,-0.095l-0.237,-0.096l-0.237,-0.097l-0.236,-0.099l-0.235,-0.101l-0.235,-0.101l-0.233,-0.104l-0.233,-0.104l-0.233,-0.106l-0.231,-0.107l-0.231,-0.109l-0.23,-0.11l-0.229,-0.111l-0.228,-0.113l-0.228,-0.114l-0.227,-0.115l-0.226,-0.116l-0.225,-0.118l-0.224,-0.12l-0.224,-0.12l-0.223,-0.122l-0.222,-0.123l-0.221,-0.125l-0.22,-0.126l-0.22,-0.127l-0.218,-0.128l-0.218,-0.13l-0.217,-0.131l-0.216,-0.132l-0.215,-0.133l-0.215,-0.135l-0.213,-0.136l-0.213,-0.137l-0.211,-0.139l-0.211,-0.139l-0.21,-0.141l-0.209,-0.142l-0.208,-0.144l-0.207,-0.144l-0.207,-0.146l-0.205,-0.147l-0.204,-0.148l-0.204,-0.149l-0.202,-0.151l-0.202,-0.152l-0.201,-0.153l-0.199,-0.154l-0.199,-0.155l-0.198,-0.156l-0.197,-0.158l-0.196,-0.159l-0.195,-0.159l-0.194,-0.162l-0.193,-0.162l-0.192,-0.163l-0.19,-0.164l-0.19,-0.166l-0.189,-0.167l-0.188,-0.167l-0.187,-0.169l-0.186,-0.17l-0.185,-0.171l-0.184,-0.172l-0.183,-0.174l-0.181,-0.174l-0.181,-0.175l-0.18,-0.177l-0.178,-0.177l-0.178,-0.179l-0.177,-0.18l-0.175,-0.181l-0.174,-0.181l-0.174,-0.183l-0.172,-0.184l-0.171,-0.185l-0.17,-0.186l-0.169,-0.187l-0.167,-0.188l-0.167,-0.189l-0.166,-0.189l-0.164,-0.191l-0.163,-0.192l-0.162,-0.193l-0.161,-0.194l-0.16,-0.195l-0.159,-0.196l-0.158,-0.197l-0.156,-0.198l-0.155,-0.198l-0.154,-0.2l-0.153,-0.201l-0.152,-0.202l-0.151,-0.202l-0.149,-0.204l-0.148,-0.204l-0.147,-0.205l-0.146,-0.207l-0.144,-0.207l-0.144,-0.208l-0.142,-0.209l-0.141,-0.21l-0.139,-0.211l-0.139,-0.211l-0.137,-0.213l-0.136,-0.213l-0.135,-0.215l-0.133,-0.215l-0.132,-0.216l-0.131,-0.217l-0.13,-0.218l-0.128,-0.218l-0.127,-0.22l-0.126,-0.22l-0.125,-0.221l-0.123,-0.222l-0.122,-0.223l-0.12,-0.224l-0.12,-0.224l-0.117,-0.225l-0.117,-0.226l-0.115,-0.227l-0.114,-0.228l-0.113,-0.228l-0.111,-0.229l-0.11,-0.23l-0.109,-0.231l-0.107,-0.231l-0.106,-0.233l-0.104,-0.233l-0.104,-0.233l-0.101,-0.235l-0.101,-0.235l-0.099,-0.236l-0.097,-0.237l-0.096,-0.237l-0.095,-0.238l-0.093,-0.239l-0.092,-0.24l-0.091,-0.24l-0.089,-0.241l-0.088,-0.242l-0.086,-0.242l-0.084,-0.243l-0.084,-0.244l-0.082,-0.244l-0.08,-0.245l-0.079,-0.246l-0.077,-0.246l-0.076,-0.247l-0.075,-0.248l-0.073,-0.248l-0.072,-0.249l-0.07,-0.25l-0.068,-0.25l-0.067,-0.251l-0.066,-0.251l-0.064,-0.252l-0.062,-0.253l-0.061,-0.253l-0.059,-0.254l-0.058,-0.254l-0.057,-0.255l-0.055,-0.256l-0.053,-0.256l-0.051,-0.256l-0.051,-0.258l-0.048,-0.257l-0.047,-0.259l-0.045,-0.259l-0.044,-0.259l-0.043,-0.26l-0.04,-0.26l-0.039,-0.261l-0.038,-0.262l-0.035,-0.262l-0.035,-0.262l-0.032,-0.263l-0.031,-0.264l-0.03,-0.264l-0.027,-0.264l-0.026,-0.265l-0.025,-0.265l-0.022,-0.266l-0.022,-0.267l-0.019,-0.266l-0.018,-0.268l-0.016,-0.267l-0.014,-0.268l-0.013,-0.269l-0.011,-0.269l-0.01,-0.269l-0.007,-0.27l-0.006,-0.27l-0.005,-0.271l-0.002,-0.271l-0.001,-0.269l0.001,-0.506l0.002,-0.503l0.004,-0.503l0.006,-0.503l0.007,-0.502l0.008,-0.502l0.01,-0.502l0.012,-0.501l0.013,-0.5l0.015,-0.501l0.016,-0.5l0.018,-0.499l0.02,-0.499l0.021,-0.499l0.022,-0.498l0.024,-0.498l0.026,-0.498l0.027,-0.497l0.028,-0.497l0.031,-0.496l0.031,-0.496l0.033,-0.495l0.035,-0.495l0.036,-0.495l0.038,-0.494l0.039,-0.494l0.041,-0.493l0.042,-0.493l0.043,-0.493l0.046,-0.492l0.046,-0.492l0.048,-0.491l0.05,-0.491l0.051,-0.49l0.053,-0.49l0.054,-0.489l0.055,-0.489l0.057,-0.489l0.058,-0.488l0.06,-0.488l0.062,-0.487l0.062,-0.486l0.065,-0.487l0.065,-0.486l0.068,-0.485l0.068,-0.485l0.07,-0.484l0.072,-0.484l0.073,-0.484l0.074,-0.483l0.076,-0.482l0.077,-0.482l0.079,-0.482l0.08,-0.481l0.081,-0.481l0.083,-0.48l0.085,-0.48l0.085,-0.479l0.088,-0.478l0.088,-0.479l0.09,-0.477l0.091,-0.477l0.093,-0.477l0.094,-0.476l0.096,-0.476l0.097,-0.475l0.098,-0.475l0.1,-0.474l0.101,-0.474l0.102,-0.473l0.104,-0.473l0.105,-0.472l0.107,-0.472l0.108,-0.471l0.109,-0.47l0.111,-0.47l0.112,-0.47l0.113,-0.469l0.115,-0.468l0.116,-0.468l0.118,-0.468l0.119,-0.467l0.12,-0.466l0.121,-0.466l0.123,-0.465l0.124,-0.465l0.126,-0.464l0.126,-0.464l0.129,-0.463l0.129,-0.462l0.131,-0.462l0.132,-0.462l0.133,-0.461l0.135,-0.46l0.136,-0.46l0.137,-0.459l0.139,-0.459l0.14,-0.458l0.141,-0.457l0.143,-0.457l0.143,-0.456l0.146,-0.456l0.146,-0.455l0.148,-0.455l0.149,-0.454l0.15,-0.454l0.151,-0.452l0.153,-0.453l0.154,-0.452l0.155,-0.451l0.157,-0.45l0.158,-0.45l0.159,-0.449l0.16,-0.449l0.162,-0.448l0.163,-0.448l0.164,-0.447l0.165,-0.446l0.167,-0.446l0.168,-0.445l0.169,-0.445l0.17,-0.444l0.171,-0.443l0.173,-0.443l0.174,-0.442l0.175,-0.441l0.177,-0.441l0.177,-0.44l0.142,-0.348l0.142,-0.347l0.143,-0.346l0.143,-0.347l0.145,-0.346l0.145,-0.345l0.146,-0.345l0.146,-0.345l0.148,-0.344l0.148,-0.344l0.149,-0.344l0.15,-0.343l0.15,-0.342l0.152,-0.343l0.152,-0.341l0.153,-0.342l0.153,-0.341l0.155,-0.34l0.155,-0.341l0.156,-0.339l0.156,-0.34l0.158,-0.339l0.158,-0.338l0.159,-0.338l0.159,-0.338l0.161,-0.337l0.161,-0.337l0.162,-0.336l0.162,-0.336l0.164,-0.335l0.164,-0.335l0.165,-0.335l0.166,-0.334l0.166,-0.334l0.167,-0.333l0.168,-0.333l0.169,-0.332l0.169,-0.332l0.17,-0.332l0.171,-0.331l0.171,-0.331l0.173,-0.33l0.173,-0.33l0.173,-0.329l0.175,-0.329l0.175,-0.328l0.176,-0.328l0.177,-0.328l0.177,-0.327l0.178,-0.327l0.179,-0.326l0.18,-0.325l0.18,-0.326l0.181,-0.324l0.182,-0.325l0.182,-0.324l0.184,-0.323l0.183,-0.323l0.185,-0.323l0.185,-0.322l0.186,-0.321l0.187,-0.321l0.188,-0.321l0.188,-0.32l0.189,-0.32l0.189,-0.319l0.191,-0.319l0.191,-0.318l0.191,-0.318l0.193,-0.317l0.193,-0.317l0.194,-0.316l0.194,-0.316l0.196,-0.316l0.196,-0.315l0.196,-0.314l0.198,-0.314l0.198,-0.313l0.198,-0.313l0.2,-0.313l0.2,-0.312l0.201,-0.312l0.201,-0.311l0.202,-0.31l0.203,-0.31l0.204,-0.31l0.204,-0.309l0.205,-0.309l0.205,-0.308l0.207,-0.307l0.207,-0.307l0.207,-0.307l0.209,-0.306l0.209,-0.306l0.209,-0.305l0.211,-0.304l0.211,-0.304l0.212,-0.304l0.212,-0.303l0.213,-0.303l0.214,-0.302l0.214,-0.301l0.215,-0.301l0.216,-0.301l0.216,-0.3l0.217,-0.299l0.218,-0.299l0.219,-0.299l0.219,-0.298l0.219,-0.297l0.221,-0.297l0.221,-0.297l0.221,-0.295l0.223,-0.296l0.223,-0.295l0.223,-0.294l0.225,-0.294l0.225,-0.293l0.225,-0.293l0.227,-0.292l0.227,-0.292l0.227,-0.291l0.228,-0.29l0.229,-0.29l0.23,-0.29l0.23,-0.289l0.231,-0.288l0.231,-0.288l0.232,-0.288l0.233,-0.286l0.233,-0.287l0.234,-0.285l0.235,-0.286l0.235,-0.284l0.236,-0.284l0.237,-0.284l0.237,-0.283l0.238,-0.283l0.238,-0.281l0.239,-0.282l0.24,-0.281l0.24,-0.28l0.241,-0.28l0.242,-0.279l0.242,-0.278l0.243,-0.278l0.243,-0.278l0.244,-0.277l0.245,-0.276l0.245,-0.276l0.246,-0.275l0.247,-0.275l0.247,-0.274l0.247,-0.274l0.249,-0.273l0.249,-0.272l0.249,-0.272l0.251,-0.271l0.25,-0.271l0.252,-0.27l0.252,-0.269l0.252,-0.269l0.254,-0.269l0.253,-0.268l0.255,-0.267l0.255,-0.267l0.256,-0.266l0.256,-0.265l0.257,-0.265l0.257,-0.264l0.258,-0.264l0.259,-0.263l0.259,-0.263l0.26,-0.262l0.26,-0.261l0.261,-0.261l0.262,-0.26l0.262,-0.26l0.263,-0.259l0.263,-0.258l0.264,-0.258l0.264,-0.257l0.265,-0.257l0.266,-0.256l0.266,-0.256l0.267,-0.254l0.268,-0.255l0.268,-0.253l0.268,-0.253l0.269,-0.253l0.27,-0.252l0.27,-0.251l0.271,-0.25l0.272,-0.25l0.272,-0.25l0.272,-0.249l0.273,-0.248l0.274,-0.247l0.274,-0.247l0.275,-0.246l0.275,-0.246l0.276,-0.245l0.277,-0.245l0.277,-0.244l0.278,-0.243l0.278,-0.242l0.278,-0.242l0.28,-0.242l0.28,-0.24l0.28,-0.24l0.281,-0.24l0.282,-0.239l0.282,-0.238l0.282,-0.237l0.283,-0.237l0.284,-0.237l0.284,-0.235l0.285,-0.235l0.286,-0.235l0.285,-0.233l0.287,-0.234l0.287,-0.232l0.287,-0.232l0.288,-0.231l0.289,-0.231l0.289,-0.23l0.29,-0.229l0.29,-0.228l0.291,-0.228l0.291,-0.228l0.292,-0.226l0.292,-0.226l0.293,-0.226l0.293,-0.224l0.294,-0.224l0.295,-0.224l0.294,-0.222l0.296,-0.223l0.296,-0.221l0.296,-0.221l0.298,-0.22l0.297,-0.219l0.298,-0.219l0.299,-0.218l0.299,-0.218l0.299,-0.216l0.301,-0.216l0.3,-0.216l0.301,-0.215l0.302,-0.214l0.302,-0.213l0.303,-0.213l0.303,-0.212l0.304,-0.211l0.304,-0.211l0.305,-0.21l0.305,-0.209l0.306,-0.209l0.306,-0.208l0.307,-0.207l0.307,-0.207l0.308,-0.206l0.308,-0.205l0.309,-0.205l0.309,-0.204l0.309,-0.203l0.311,-0.202l0.31,-0.202l0.312,-0.201l0.311,-0.201l0.312,-0.2l0.313,-0.199l0.313,-0.198l0.314,-0.198l0.314,-0.197l0.314,-0.196l0.315,-0.195l0.316,-0.195l0.316,-0.194l0.316,-0.194l0.317,-0.193l0.318,-0.192l0.318,-0.191l0.318,-0.19l0.319,-0.19l0.319,-0.19l0.32,-0.188l0.32,-0.188l0.321,-0.187l0.321,-0.186l0.322,-0.186l0.322,-0.185l0.323,-0.184l0.323,-0.183l0.323,-0.183l0.324,-0.182l0.325,-0.182l0.325,-0.18l0.325,-0.18l0.326,-0.179l0.326,-0.179l0.327,-0.177l0.327,-0.177l0.328,-0.176l0.328,-0.176l0.329,-0.175l0.328,-0.174l0.33,-0.173l0.33,-0.172l0.33,-0.172l0.331,-0.171l0.331,-0.171l0.332,-0.169l0.332,-0.169l0.332,-0.168l0.333,-0.168l0.334,-0.166l0.334,-0.166l0.334,-0.165l0.335,-0.165l0.335,-0.163l0.336,-0.163l0.336,-0.162l0.336,-0.162l0.337,-0.16l0.337,-0.16l0.338,-0.159l0.338,-0.159l0.339,-0.157l0.339,-0.157l0.339,-0.156l0.34,-0.155l0.34,-0.155l0.341,-0.154l0.341,-0.153l0.342,-0.152l0.342,-0.152l0.342,-0.15l0.343,-0.15l0.343,-0.15l0.344,-0.148l0.344,-0.148l0.344,-0.146l0.345,-0.147l0.345,-0.145l0.346,-0.144l0.346,-0.144l0.347,-0.143l0.347,-0.142l0.347,-0.142l0.348,-0.141l0.348,-0.139l0.348,-0.14l0.349,-0.138l0.349,-0.137l0.35,-0.137l0.35,-0.136l0.35,-0.135l0.351,-0.135l0.352,-0.133l0.351,-0.133l0.352,-0.132l0.353,-0.131l0.352,-0.13l0.354,-0.13l0.353,-0.129l0.354,-0.128l0.355,-0.127l0.354,-0.126l0.355,-0.126l0.356,-0.125l0.356,-0.124l0.356,-0.123l0.357,-0.122l0.357,-0.122l0.357,-0.121l0.358,-0.12l0.358,-0.119l0.358,-0.118l0.359,-0.117l0.359,-0.117l0.36,-0.116l0.36,-0.115l0.36,-0.114l0.361,-0.114l0.361,-0.112l0.361,-0.112l0.362,-0.111l0.362,-0.11l0.363,-0.11l0.363,-0.108l0.363,-0.108l0.363,-0.106l0.364,-0.106l0.365,-0.106l0.364,-0.104l0.365,-0.103l0.366,-0.103l0.365,-0.102l0.366,-0.101l0.367,-0.1l0.366,-0.099l0.367,-0.099l0.368,-0.098l0.368,-0.096l0.368,-0.096l0.368,-0.095l0.369,-0.095l0.369,-0.093l0.369,-0.093l0.37,-0.091l0.37,-0.091l0.371,-0.09l0.371,-0.09l0.371,-0.088l0.371,-0.087l0.372,-0.087l0.372,-0.086l0.372,-0.085l0.373,-0.084l0.373,-0.083l0.374,-0.082l0.373,-0.082l0.374,-0.08l0.375,-0.08l0.374,-0.079l0.375,-0.078l0.376,-0.077l0.375,-0.076l0.376,-0.076l0.377,-0.074l0.376,-0.074l0.377,-0.073l0.377,-0.072l0.378,-0.071l0.378,-0.07l0.378,-0.069l0.378,-0.069l0.379,-0.067l0.379,-0.067l0.379,-0.066l0.38,-0.065l0.38,-0.064l0.38,-0.063l0.381,-0.062l0.381,-0.061l0.381,-0.061l0.381,-0.059l0.382,-0.059l0.382,-0.058l0.382,-0.057l0.383,-0.056l0.383,-0.055l0.383,-0.054l0.383,-0.054l0.384,-0.052l0.384,-0.052l0.385,-0.05l0.384,-0.05l0.385,-0.049l0.385,-0.048l0.386,-0.047l0.385,-0.046l0.387,-0.045l0.386,-0.045l0.386,-0.043l0.387,-0.043l0.387,-0.041l0.388,-0.041l0.387,-0.04l0.388,-0.038l0.388,-0.038l0.389,-0.037l0.389,-0.037l0.389,-0.035l0.389,-0.034l0.389,-0.033l0.39,-0.033l0.39,-0.031l0.391,-0.031l0.39,-0.03l0.391,-0.028l0.391,-0.028l0.391,-0.027l0.392,-0.026l0.392,-0.025l0.392,-0.024l0.392,-0.023l0.393,-0.023l0.393,-0.021l0.393,-0.02l0.393,-0.02l0.394,-0.018l0.394,-0.018l0.394,-0.016l0.394,-0.016l0.394,-0.015l0.395,-0.014l0.395,-0.012l0.396,-0.012l0.395,-0.011l0.396,-0.01l0.396,-0.009l0.396,-0.008l0.396,-0.008l0.397,-0.006l0.397,-0.005l0.397,-0.004l0.398,-0.004l0.397,-0.002l0.398,-0.002l0.4,0l0.269,0.001Zm-0.659,3.999l-0.389,0.002l-0.388,0.002l-0.387,0.003l-0.388,0.005l-0.387,0.005l-0.387,0.006l-0.387,0.007l-0.386,0.008l-0.387,0.009l-0.386,0.009l-0.386,0.011l-0.385,0.012l-0.386,0.012l-0.385,0.014l-0.385,0.014l-0.385,0.015l-0.384,0.017l-0.384,0.017l-0.384,0.018l-0.384,0.019l-0.384,0.02l-0.383,0.02l-0.383,0.022l-0.382,0.023l-0.383,0.023l-0.382,0.025l-0.382,0.025l-0.382,0.026l-0.381,0.027l-0.382,0.028l-0.381,0.029l-0.38,0.03l-0.381,0.031l-0.38,0.031l-0.38,0.033l-0.38,0.033l-0.379,0.035l-0.379,0.035l-0.379,0.036l-0.379,0.037l-0.378,0.038l-0.378,0.039l-0.378,0.039l-0.378,0.041l-0.377,0.042l-0.377,0.042l-0.377,0.043l-0.376,0.044l-0.376,0.045l-0.376,0.046l-0.376,0.047l-0.375,0.047l-0.376,0.049l-0.374,0.049l-0.375,0.051l-0.374,0.051l-0.374,0.052l-0.374,0.053l-0.373,0.054l-0.373,0.054l-0.373,0.056l-0.373,0.056l-0.372,0.057l-0.372,0.058l-0.372,0.059l-0.371,0.06l-0.371,0.061l-0.371,0.062l-0.371,0.062l-0.37,0.063l-0.37,0.064l-0.369,0.065l-0.37,0.066l-0.369,0.067l-0.369,0.068l-0.368,0.068l-0.368,0.069l-0.368,0.07l-0.367,0.071l-0.368,0.072l-0.367,0.073l-0.366,0.074l-0.366,0.074l-0.366,0.075l-0.366,0.076l-0.366,0.077l-0.365,0.078l-0.364,0.079l-0.365,0.079l-0.364,0.08l-0.364,0.081l-0.363,0.082l-0.363,0.083l-0.363,0.084l-0.363,0.084l-0.362,0.086l-0.362,0.086l-0.361,0.087l-0.361,0.087l-0.361,0.089l-0.361,0.089l-0.36,0.091l-0.36,0.091l-0.36,0.092l-0.359,0.093l-0.359,0.093l-0.358,0.094l-0.359,0.096l-0.358,0.096l-0.357,0.097l-0.357,0.097l-0.357,0.099l-0.357,0.099l-0.356,0.1l-0.356,0.101l-0.355,0.102l-0.356,0.102l-0.354,0.104l-0.355,0.104l-0.354,0.105l-0.354,0.106l-0.353,0.106l-0.353,0.108l-0.353,0.108l-0.353,0.109l-0.352,0.109l-0.351,0.111l-0.352,0.111l-0.351,0.113l-0.35,0.113l-0.351,0.113l-0.35,0.115l-0.349,0.115l-0.349,0.116l-0.349,0.117l-0.349,0.118l-0.348,0.119l-0.347,0.119l-0.348,0.12l-0.347,0.121l-0.346,0.122l-0.347,0.122l-0.345,0.123l-0.346,0.124l-0.345,0.125l-0.345,0.126l-0.344,0.126l-0.344,0.127l-0.344,0.128l-0.343,0.129l-0.343,0.129l-0.343,0.131l-0.342,0.131l-0.341,0.131l-0.342,0.133l-0.341,0.133l-0.34,0.134l-0.34,0.135l-0.34,0.136l-0.34,0.136l-0.339,0.137l-0.338,0.138l-0.339,0.139l-0.337,0.139l-0.338,0.141l-0.337,0.141l-0.337,0.141l-0.336,0.143l-0.336,0.143l-0.335,0.144l-0.335,0.145l-0.335,0.145l-0.334,0.146l-0.334,0.147l-0.334,0.148l-0.333,0.149l-0.332,0.149l-0.333,0.15l-0.331,0.151l-0.332,0.151l-0.331,0.152l-0.33,0.153l-0.331,0.154l-0.329,0.154l-0.33,0.155l-0.329,0.156l-0.328,0.157l-0.328,0.157l-0.328,0.158l-0.327,0.159l-0.327,0.16l-0.327,0.16l-0.326,0.161l-0.325,0.162l-0.325,0.162l-0.325,0.164l-0.324,0.164l-0.324,0.164l-0.324,0.166l-0.323,0.166l-0.322,0.167l-0.322,0.167l-0.322,0.168l-0.321,0.169l-0.321,0.17l-0.321,0.171l-0.32,0.171l-0.319,0.171l-0.319,0.173l-0.319,0.173l-0.318,0.174l-0.318,0.175l-0.317,0.175l-0.317,0.177l-0.316,0.176l-0.316,0.178l-0.316,0.178l-0.315,0.179l-0.315,0.18l-0.314,0.18l-0.313,0.181l-0.314,0.182l-0.312,0.182l-0.313,0.183l-0.312,0.184l-0.311,0.185l-0.311,0.185l-0.311,0.186l-0.31,0.186l-0.309,0.188l-0.309,0.188l-0.309,0.188l-0.308,0.19l-0.308,0.19l-0.307,0.19l-0.307,0.192l-0.306,0.192l-0.306,0.193l-0.306,0.193l-0.305,0.194l-0.304,0.195l-0.304,0.195l-0.303,0.197l-0.303,0.196l-0.303,0.198l-0.302,0.198l-0.302,0.199l-0.301,0.2l-0.3,0.2l-0.3,0.201l-0.3,0.201l-0.299,0.202l-0.299,0.203l-0.298,0.204l-0.298,0.204l-0.297,0.205l-0.297,0.205l-0.296,0.207l-0.296,0.206l-0.295,0.208l-0.295,0.208l-0.294,0.209l-0.294,0.209l-0.293,0.21l-0.293,0.211l-0.292,0.212l-0.292,0.212l-0.291,0.212l-0.291,0.214l-0.29,0.214l-0.29,0.215l-0.289,0.215l-0.288,0.216l-0.289,0.216l-0.287,0.218l-0.288,0.218l-0.286,0.218l-0.286,0.219l-0.286,0.22l-0.285,0.22l-0.285,0.222l-0.284,0.221l-0.283,0.223l-0.283,0.223l-0.283,0.223l-0.282,0.224l-0.282,0.225l-0.28,0.226l-0.281,0.226l-0.28,0.227l-0.279,0.227l-0.279,0.228l-0.278,0.229l-0.278,0.229l-0.277,0.23l-0.277,0.23l-0.276,0.231l-0.276,0.232l-0.275,0.232l-0.275,0.233l-0.274,0.234l-0.273,0.234l-0.273,0.235l-0.273,0.235l-0.272,0.236l-0.271,0.237l-0.271,0.237l-0.27,0.238l-0.27,0.239l-0.269,0.239l-0.269,0.239l-0.268,0.241l-0.267,0.24l-0.267,0.242l-0.267,0.242l-0.266,0.243l-0.265,0.243l-0.265,0.244l-0.264,0.244l-0.264,0.245l-0.263,0.246l-0.262,0.246l-0.262,0.247l-0.262,0.247l-0.26,0.248l-0.261,0.249l-0.259,0.249l-0.26,0.25l-0.258,0.25l-0.258,0.251l-0.258,0.252l-0.256,0.252l-0.257,0.252l-0.255,0.254l-0.256,0.254l-0.254,0.254l-0.254,0.255l-0.254,0.255l-0.253,0.257l-0.252,0.256l-0.251,0.258l-0.252,0.257l-0.25,0.259l-0.25,0.259l-0.249,0.259l-0.249,0.261l-0.248,0.26l-0.248,0.261l-0.247,0.262l-0.246,0.263l-0.246,0.263l-0.246,0.263l-0.244,0.264l-0.244,0.265l-0.244,0.265l-0.243,0.266l-0.242,0.266l-0.242,0.267l-0.241,0.267l-0.24,0.268l-0.24,0.269l-0.239,0.269l-0.239,0.269l-0.238,0.27l-0.237,0.271l-0.237,0.271l-0.237,0.272l-0.235,0.272l-0.235,0.273l-0.235,0.274l-0.233,0.273l-0.234,0.275l-0.232,0.275l-0.232,0.276l-0.232,0.276l-0.23,0.276l-0.23,0.277l-0.23,0.278l-0.229,0.278l-0.228,0.279l-0.228,0.279l-0.227,0.28l-0.226,0.28l-0.226,0.281l-0.225,0.282l-0.224,0.282l-0.224,0.282l-0.224,0.283l-0.222,0.283l-0.222,0.284l-0.222,0.285l-0.22,0.285l-0.22,0.285l-0.22,0.286l-0.219,0.287l-0.218,0.287l-0.217,0.288l-0.217,0.288l-0.216,0.288l-0.216,0.289l-0.215,0.29l-0.214,0.29l-0.214,0.291l-0.213,0.291l-0.212,0.292l-0.212,0.292l-0.211,0.292l-0.211,0.294l-0.209,0.293l-0.21,0.294l-0.208,0.295l-0.208,0.295l-0.207,0.296l-0.207,0.296l-0.205,0.297l-0.206,0.297l-0.204,0.297l-0.204,0.298l-0.203,0.299l-0.203,0.299l-0.202,0.299l-0.201,0.301l-0.2,0.3l-0.2,0.301l-0.2,0.302l-0.198,0.302l-0.198,0.302l-0.197,0.303l-0.197,0.303l-0.196,0.304l-0.195,0.304l-0.194,0.305l-0.194,0.306l-0.193,0.305l-0.193,0.307l-0.192,0.306l-0.191,0.308l-0.19,0.307l-0.19,0.308l-0.189,0.309l-0.188,0.309l-0.188,0.309l-0.187,0.31l-0.186,0.311l-0.186,0.311l-0.185,0.311l-0.184,0.312l-0.184,0.312l-0.182,0.313l-0.183,0.313l-0.181,0.314l-0.181,0.314l-0.18,0.314l-0.179,0.315l-0.179,0.316l-0.178,0.316l-0.177,0.316l-0.177,0.317l-0.176,0.317l-0.175,0.318l-0.174,0.318l-0.174,0.318l-0.173,0.319l-0.172,0.32l-0.172,0.32l-0.171,0.32l-0.17,0.321l-0.169,0.321l-0.169,0.321l-0.168,0.323l-0.167,0.322l-0.167,0.323l-0.166,0.323l-0.165,0.324l-0.165,0.324l-0.163,0.325l-0.163,0.325l-0.163,0.325l-0.161,0.326l-0.161,0.327l-0.16,0.326l-0.159,0.328l-0.159,0.327l-0.158,0.328l-0.157,0.329l-0.157,0.329l-0.155,0.329l-0.155,0.329l-0.154,0.331l-0.154,0.33l-0.153,0.331l-0.152,0.331l-0.151,0.332l-0.151,0.332l-0.149,0.333l-0.149,0.333l-0.149,0.333l-0.147,0.334l-0.147,0.334l-0.146,0.335l-0.146,0.335l-0.144,0.335l-0.144,0.336l-0.143,0.336l-0.142,0.336l-0.142,0.337l-0.141,0.338l-0.14,0.337l-0.139,0.339l-0.139,0.338l-0.137,0.339l-0.174,0.43l-0.172,0.43l-0.171,0.431l-0.17,0.431l-0.168,0.432l-0.167,0.432l-0.167,0.434l-0.165,0.433l-0.163,0.435l-0.163,0.435l-0.161,0.435l-0.16,0.436l-0.159,0.437l-0.158,0.437l-0.156,0.438l-0.156,0.438l-0.154,0.439l-0.152,0.44l-0.152,0.44l-0.15,0.441l-0.149,0.441l-0.148,0.442l-0.147,0.442l-0.145,0.443l-0.144,0.444l-0.143,0.444l-0.141,0.444l-0.141,0.446l-0.139,0.445l-0.137,0.447l-0.137,0.446l-0.135,0.448l-0.134,0.448l-0.133,0.448l-0.131,0.449l-0.13,0.45l-0.129,0.45l-0.128,0.45l-0.126,0.452l-0.125,0.451l-0.124,0.452l-0.122,0.453l-0.121,0.454l-0.12,0.453l-0.118,0.455l-0.117,0.454l-0.116,0.456l-0.115,0.456l-0.113,0.456l-0.112,0.457l-0.111,0.457l-0.109,0.458l-0.108,0.459l-0.106,0.459l-0.106,0.459l-0.104,0.46l-0.102,0.46l-0.101,0.461l-0.1,0.462l-0.099,0.462l-0.097,0.462l-0.096,0.463l-0.095,0.463l-0.093,0.464l-0.092,0.465l-0.09,0.465l-0.089,0.465l-0.088,0.466l-0.086,0.466l-0.085,0.467l-0.084,0.467l-0.082,0.468l-0.081,0.468l-0.079,0.469l-0.078,0.469l-0.077,0.469l-0.075,0.47l-0.074,0.471l-0.073,0.471l-0.071,0.471l-0.07,0.472l-0.068,0.473l-0.067,0.472l-0.065,0.474l-0.065,0.473l-0.062,0.475l-0.061,0.474l-0.06,0.475l-0.059,0.476l-0.057,0.476l-0.055,0.476l-0.054,0.477l-0.053,0.477l-0.051,0.478l-0.05,0.478l-0.048,0.478l-0.047,0.479l-0.046,0.48l-0.044,0.479l-0.042,0.481l-0.041,0.48l-0.04,0.481l-0.038,0.482l-0.037,0.482l-0.035,0.482l-0.034,0.483l-0.032,0.483l-0.031,0.483l-0.03,0.484l-0.027,0.485l-0.027,0.484l-0.025,0.486l-0.023,0.485l-0.022,0.486l-0.021,0.486l-0.018,0.487l-0.018,0.487l-0.016,0.488l-0.014,0.488l-0.013,0.488l-0.012,0.489l-0.01,0.489l-0.008,0.489l-0.007,0.49l-0.005,0.49l-0.004,0.491l-0.002,0.491l-0.001,0.489l0.001,0.248l0.002,0.246l0.004,0.245l0.005,0.245l0.007,0.244l0.009,0.244l0.01,0.244l0.011,0.243l0.014,0.243l0.014,0.242l0.016,0.242l0.018,0.242l0.019,0.241l0.021,0.241l0.022,0.24l0.023,0.24l0.025,0.239l0.027,0.239l0.028,0.238l0.029,0.238l0.031,0.238l0.033,0.237l0.034,0.236l0.035,0.237l0.037,0.235l0.038,0.235l0.04,0.235l0.041,0.234l0.042,0.234l0.044,0.233l0.045,0.232l0.047,0.232l0.048,0.232l0.05,0.231l0.051,0.231l0.052,0.23l0.054,0.229l0.055,0.229l0.056,0.228l0.058,0.228l0.059,0.228l0.061,0.226l0.062,0.226l0.063,0.226l0.065,0.225l0.066,0.225l0.067,0.223l0.069,0.224l0.07,0.222l0.071,0.223l0.073,0.221l0.074,0.221l0.075,0.22l0.077,0.22l0.078,0.219l0.079,0.219l0.081,0.218l0.082,0.217l0.083,0.216l0.084,0.216l0.086,0.216l0.087,0.214l0.088,0.214l0.089,0.214l0.091,0.212l0.092,0.212l0.093,0.212l0.095,0.211l0.096,0.21l0.097,0.209l0.098,0.209l0.099,0.208l0.101,0.207l0.102,0.206l0.103,0.206l0.104,0.205l0.106,0.205l0.106,0.203l0.108,0.203l0.109,0.203l0.11,0.201l0.112,0.201l0.113,0.2l0.113,0.199l0.115,0.199l0.116,0.198l0.118,0.197l0.118,0.196l0.12,0.195l0.12,0.195l0.122,0.194l0.123,0.193l0.124,0.193l0.126,0.191l0.126,0.191l0.128,0.19l0.128,0.189l0.13,0.188l0.131,0.188l0.132,0.186l0.133,0.186l0.134,0.185l0.135,0.184l0.136,0.184l0.138,0.182l0.138,0.182l0.139,0.181l0.141,0.18l0.142,0.179l0.142,0.178l0.144,0.177l0.145,0.177l0.145,0.175l0.147,0.175l0.148,0.174l0.149,0.173l0.15,0.171l0.151,0.172l0.151,0.17l0.153,0.169l0.154,0.168l0.155,0.168l0.156,0.166l0.157,0.166l0.158,0.164l0.158,0.164l0.16,0.162l0.161,0.162l0.162,0.161l0.162,0.16l0.164,0.158l0.164,0.158l0.166,0.157l0.166,0.156l0.168,0.155l0.168,0.154l0.169,0.153l0.17,0.151l0.172,0.151l0.171,0.15l0.173,0.149l0.174,0.148l0.175,0.147l0.175,0.145l0.177,0.145l0.177,0.144l0.178,0.142l0.179,0.142l0.18,0.141l0.181,0.139l0.182,0.138l0.182,0.138l0.184,0.136l0.184,0.135l0.185,0.134l0.186,0.133l0.186,0.132l0.188,0.131l0.188,0.13l0.189,0.128l0.19,0.128l0.191,0.126l0.192,0.126l0.192,0.124l0.193,0.123l0.194,0.122l0.195,0.12l0.195,0.12l0.196,0.118l0.197,0.118l0.198,0.116l0.199,0.115l0.199,0.113l0.2,0.113l0.201,0.112l0.201,0.11l0.203,0.109l0.203,0.108l0.203,0.106l0.205,0.106l0.205,0.104l0.206,0.103l0.206,0.102l0.208,0.101l0.207,0.099l0.209,0.098l0.209,0.097l0.21,0.096l0.211,0.095l0.212,0.093l0.212,0.092l0.212,0.091l0.214,0.089l0.214,0.088l0.214,0.087l0.216,0.086l0.216,0.084l0.216,0.083l0.217,0.082l0.218,0.081l0.219,0.079l0.219,0.078l0.22,0.077l0.22,0.075l0.221,0.074l0.221,0.073l0.222,0.071l0.223,0.07l0.224,0.069l0.223,0.067l0.225,0.066l0.225,0.065l0.226,0.063l0.226,0.062l0.226,0.061l0.228,0.059l0.228,0.058l0.228,0.056l0.229,0.055l0.229,0.054l0.23,0.052l0.231,0.051l0.231,0.05l0.232,0.048l0.232,0.047l0.232,0.045l0.233,0.044l0.234,0.042l0.234,0.041l0.235,0.04l0.235,0.038l0.236,0.037l0.236,0.035l0.236,0.034l0.237,0.033l0.238,0.031l0.238,0.029l0.238,0.028l0.239,0.027l0.239,0.025l0.24,0.023l0.24,0.022l0.241,0.021l0.241,0.019l0.242,0.018l0.242,0.016l0.242,0.014l0.243,0.014l0.243,0.011l0.244,0.01l0.244,0.009l0.244,0.007l0.245,0.005l0.245,0.004l0.246,0.002l0.248,0.001l0.386,0l0.389,-0.002l0.388,-0.002l0.387,-0.003l0.388,-0.005l0.387,-0.005l0.387,-0.006l0.387,-0.007l0.386,-0.008l0.387,-0.009l0.386,-0.009l0.386,-0.011l0.385,-0.012l0.386,-0.012l0.385,-0.014l0.385,-0.014l0.385,-0.015l0.384,-0.017l0.384,-0.017l0.384,-0.018l0.384,-0.019l0.384,-0.02l0.383,-0.02l0.383,-0.022l0.382,-0.023l0.383,-0.023l0.382,-0.025l0.382,-0.025l0.382,-0.026l0.381,-0.027l0.382,-0.028l0.381,-0.029l0.38,-0.03l0.381,-0.031l0.38,-0.031l0.38,-0.033l0.38,-0.033l0.379,-0.035l0.379,-0.035l0.379,-0.036l0.379,-0.037l0.378,-0.038l0.378,-0.039l0.378,-0.039l0.378,-0.041l0.377,-0.042l0.377,-0.042l0.377,-0.043l0.376,-0.044l0.376,-0.045l0.376,-0.046l0.376,-0.047l0.375,-0.047l0.376,-0.049l0.374,-0.049l0.375,-0.051l0.374,-0.051l0.374,-0.052l0.374,-0.053l0.373,-0.054l0.373,-0.054l0.373,-0.056l0.373,-0.056l0.372,-0.057l0.372,-0.058l0.372,-0.059l0.371,-0.06l0.371,-0.061l0.371,-0.062l0.371,-0.062l0.37,-0.063l0.37,-0.064l0.369,-0.065l0.37,-0.066l0.369,-0.067l0.369,-0.068l0.368,-0.068l0.368,-0.069l0.368,-0.07l0.367,-0.071l0.368,-0.072l0.367,-0.073l0.366,-0.074l0.366,-0.074l0.366,-0.075l0.366,-0.076l0.366,-0.077l0.365,-0.078l0.364,-0.079l0.365,-0.079l0.364,-0.08l0.364,-0.081l0.363,-0.082l0.363,-0.083l0.363,-0.084l0.363,-0.084l0.362,-0.086l0.362,-0.086l0.361,-0.087l0.361,-0.087l0.361,-0.089l0.361,-0.089l0.36,-0.091l0.36,-0.091l0.36,-0.092l0.359,-0.093l0.359,-0.093l0.358,-0.094l0.359,-0.096l0.358,-0.096l0.357,-0.097l0.357,-0.097l0.357,-0.099l0.357,-0.099l0.356,-0.1l0.356,-0.101l0.355,-0.102l0.356,-0.102l0.354,-0.104l0.355,-0.104l0.354,-0.105l0.354,-0.106l0.353,-0.106l0.353,-0.108l0.353,-0.108l0.353,-0.109l0.352,-0.109l0.351,-0.111l0.352,-0.111l0.351,-0.113l0.35,-0.113l0.351,-0.113l0.349,-0.115l0.35,-0.115l0.349,-0.116l0.349,-0.117l0.348,-0.118l0.349,-0.119l0.347,-0.119l0.348,-0.12l0.347,-0.121l0.346,-0.122l0.347,-0.122l0.345,-0.123l0.346,-0.124l0.345,-0.125l0.345,-0.126l0.344,-0.126l0.344,-0.127l0.344,-0.128l0.343,-0.129l0.343,-0.129l0.343,-0.131l0.342,-0.131l0.341,-0.131l0.342,-0.133l0.341,-0.133l0.34,-0.134l0.34,-0.135l0.34,-0.136l0.34,-0.136l0.339,-0.137l0.338,-0.138l0.339,-0.139l0.337,-0.139l0.338,-0.141l0.337,-0.141l0.337,-0.141l0.336,-0.143l0.336,-0.143l0.335,-0.144l0.335,-0.145l0.335,-0.145l0.334,-0.146l0.334,-0.147l0.334,-0.148l0.333,-0.149l0.332,-0.149l0.333,-0.15l0.331,-0.151l0.332,-0.151l0.331,-0.152l0.33,-0.153l0.331,-0.154l0.329,-0.154l0.33,-0.155l0.329,-0.156l0.328,-0.157l0.328,-0.157l0.328,-0.158l0.327,-0.159l0.327,-0.16l0.327,-0.16l0.326,-0.161l0.325,-0.162l0.325,-0.162l0.325,-0.164l0.324,-0.164l0.324,-0.164l0.324,-0.166l0.323,-0.166l0.322,-0.167l0.322,-0.167l0.322,-0.168l0.321,-0.169l0.321,-0.17l0.321,-0.171l0.319,-0.171l0.32,-0.172l0.319,-0.172l0.319,-0.173l0.318,-0.174l0.318,-0.175l0.317,-0.175l0.317,-0.177l0.316,-0.176l0.316,-0.178l0.316,-0.178l0.315,-0.179l0.315,-0.18l0.314,-0.18l0.313,-0.181l0.314,-0.182l0.312,-0.182l0.313,-0.183l0.312,-0.184l0.311,-0.185l0.311,-0.185l0.311,-0.186l0.31,-0.186l0.309,-0.188l0.309,-0.188l0.309,-0.188l0.308,-0.19l0.308,-0.19l0.307,-0.19l0.307,-0.192l0.306,-0.192l0.306,-0.193l0.306,-0.193l0.305,-0.194l0.304,-0.195l0.304,-0.195l0.303,-0.197l0.303,-0.196l0.303,-0.198l0.302,-0.198l0.302,-0.199l0.301,-0.2l0.3,-0.2l0.3,-0.201l0.3,-0.201l0.299,-0.202l0.299,-0.203l0.298,-0.204l0.298,-0.204l0.297,-0.205l0.297,-0.205l0.296,-0.207l0.296,-0.206l0.295,-0.208l0.295,-0.208l0.294,-0.209l0.294,-0.209l0.293,-0.21l0.293,-0.211l0.292,-0.212l0.292,-0.212l0.291,-0.212l0.291,-0.214l0.29,-0.214l0.29,-0.215l0.289,-0.215l0.288,-0.216l0.289,-0.216l0.287,-0.218l0.288,-0.218l0.286,-0.218l0.286,-0.219l0.286,-0.22l0.285,-0.22l0.285,-0.222l0.284,-0.221l0.283,-0.223l0.283,-0.223l0.283,-0.223l0.282,-0.224l0.281,-0.225l0.281,-0.226l0.281,-0.226l0.28,-0.227l0.279,-0.227l0.279,-0.228l0.278,-0.229l0.278,-0.229l0.277,-0.23l0.277,-0.23l0.276,-0.231l0.276,-0.232l0.275,-0.232l0.275,-0.233l0.274,-0.234l0.273,-0.234l0.273,-0.235l0.273,-0.235l0.272,-0.236l0.271,-0.237l0.271,-0.237l0.27,-0.238l0.27,-0.239l0.269,-0.239l0.269,-0.239l0.268,-0.241l0.267,-0.24l0.267,-0.242l0.267,-0.242l0.266,-0.243l0.265,-0.243l0.265,-0.244l0.264,-0.244l0.264,-0.245l0.263,-0.246l0.262,-0.246l0.262,-0.247l0.262,-0.247l0.26,-0.248l0.261,-0.249l0.259,-0.249l0.26,-0.25l0.258,-0.25l0.258,-0.251l0.258,-0.252l0.256,-0.252l0.257,-0.252l0.255,-0.254l0.256,-0.254l0.254,-0.254l0.254,-0.255l0.254,-0.255l0.253,-0.257l0.252,-0.256l0.251,-0.258l0.252,-0.257l0.25,-0.259l0.25,-0.259l0.249,-0.259l0.249,-0.261l0.248,-0.26l0.248,-0.261l0.247,-0.262l0.246,-0.263l0.246,-0.263l0.246,-0.263l0.244,-0.264l0.244,-0.265l0.244,-0.265l0.243,-0.266l0.242,-0.266l0.242,-0.267l0.241,-0.267l0.24,-0.268l0.24,-0.269l0.239,-0.269l0.239,-0.269l0.238,-0.27l0.237,-0.271l0.237,-0.271l0.237,-0.272l0.235,-0.272l0.235,-0.273l0.235,-0.274l0.233,-0.273l0.234,-0.275l0.232,-0.275l0.232,-0.276l0.232,-0.276l0.23,-0.276l0.23,-0.277l0.23,-0.278l0.229,-0.278l0.228,-0.279l0.228,-0.279l0.227,-0.28l0.226,-0.28l0.226,-0.281l0.225,-0.282l0.224,-0.282l0.224,-0.282l0.224,-0.283l0.222,-0.283l0.222,-0.284l0.222,-0.285l0.22,-0.285l0.22,-0.285l0.22,-0.286l0.219,-0.287l0.218,-0.287l0.217,-0.288l0.217,-0.288l0.216,-0.288l0.216,-0.29l0.215,-0.289l0.214,-0.29l0.214,-0.291l0.213,-0.291l0.212,-0.292l0.212,-0.292l0.211,-0.292l0.211,-0.294l0.21,-0.293l0.209,-0.294l0.208,-0.295l0.208,-0.295l0.207,-0.296l0.207,-0.296l0.205,-0.297l0.206,-0.297l0.204,-0.297l0.204,-0.298l0.203,-0.299l0.203,-0.299l0.202,-0.3l0.201,-0.3l0.2,-0.3l0.2,-0.301l0.2,-0.302l0.198,-0.301l0.198,-0.303l0.197,-0.303l0.197,-0.303l0.196,-0.304l0.195,-0.304l0.194,-0.305l0.194,-0.306l0.193,-0.305l0.193,-0.307l0.192,-0.306l0.191,-0.307l0.19,-0.308l0.19,-0.308l0.189,-0.309l0.188,-0.309l0.188,-0.309l0.187,-0.31l0.186,-0.311l0.186,-0.311l0.185,-0.311l0.184,-0.312l0.184,-0.312l0.182,-0.313l0.183,-0.313l0.181,-0.314l0.181,-0.314l0.18,-0.314l0.179,-0.315l0.179,-0.316l0.178,-0.316l0.177,-0.316l0.177,-0.317l0.176,-0.317l0.175,-0.318l0.174,-0.318l0.174,-0.318l0.173,-0.319l0.172,-0.32l0.172,-0.32l0.171,-0.32l0.17,-0.321l0.169,-0.321l0.169,-0.321l0.168,-0.323l0.167,-0.322l0.167,-0.323l0.166,-0.323l0.165,-0.324l0.165,-0.324l0.163,-0.325l0.163,-0.325l0.163,-0.325l0.161,-0.326l0.161,-0.327l0.16,-0.326l0.159,-0.328l0.159,-0.327l0.158,-0.328l0.157,-0.329l0.157,-0.328l0.155,-0.33l0.155,-0.329l0.154,-0.331l0.154,-0.33l0.153,-0.331l0.152,-0.331l0.151,-0.332l0.151,-0.332l0.149,-0.333l0.149,-0.333l0.149,-0.333l0.147,-0.334l0.147,-0.334l0.146,-0.335l0.146,-0.335l0.144,-0.335l0.144,-0.336l0.143,-0.336l0.142,-0.336l0.142,-0.337l0.141,-0.338l0.14,-0.337l0.139,-0.339l0.139,-0.338l0.137,-0.339l0.174,-0.43l0.172,-0.43l0.171,-0.431l0.17,-0.431l0.168,-0.432l0.167,-0.432l0.167,-0.434l0.165,-0.433l0.163,-0.435l0.163,-0.435l0.161,-0.435l0.16,-0.436l0.159,-0.437l0.158,-0.437l0.156,-0.438l0.156,-0.438l0.154,-0.439l0.152,-0.44l0.152,-0.44l0.15,-0.441l0.149,-0.441l0.148,-0.442l0.147,-0.442l0.145,-0.443l0.144,-0.444l0.143,-0.444l0.141,-0.444l0.141,-0.446l0.139,-0.445l0.137,-0.447l0.137,-0.446l0.135,-0.448l0.134,-0.448l0.133,-0.448l0.131,-0.449l0.13,-0.45l0.129,-0.45l0.128,-0.45l0.126,-0.452l0.125,-0.451l0.124,-0.452l0.122,-0.453l0.121,-0.454l0.12,-0.453l0.118,-0.455l0.117,-0.454l0.116,-0.456l0.115,-0.456l0.113,-0.456l0.112,-0.457l0.111,-0.457l0.109,-0.458l0.108,-0.459l0.106,-0.459l0.106,-0.459l0.104,-0.46l0.102,-0.46l0.101,-0.461l0.1,-0.462l0.099,-0.462l0.097,-0.462l0.096,-0.463l0.095,-0.463l0.093,-0.464l0.092,-0.465l0.09,-0.465l0.089,-0.465l0.088,-0.466l0.086,-0.466l0.085,-0.467l0.084,-0.467l0.082,-0.468l0.081,-0.468l0.079,-0.469l0.079,-0.469l0.076,-0.469l0.075,-0.47l0.074,-0.471l0.073,-0.471l0.071,-0.471l0.07,-0.472l0.068,-0.473l0.067,-0.472l0.065,-0.474l0.065,-0.473l0.062,-0.475l0.061,-0.474l0.06,-0.475l0.059,-0.476l0.057,-0.476l0.055,-0.476l0.054,-0.477l0.053,-0.477l0.051,-0.478l0.05,-0.478l0.048,-0.478l0.047,-0.479l0.046,-0.48l0.044,-0.479l0.042,-0.481l0.041,-0.48l0.04,-0.481l0.038,-0.482l0.037,-0.482l0.035,-0.482l0.034,-0.483l0.032,-0.483l0.031,-0.483l0.03,-0.484l0.027,-0.485l0.027,-0.484l0.025,-0.486l0.023,-0.485l0.022,-0.486l0.021,-0.486l0.018,-0.487l0.018,-0.487l0.016,-0.488l0.014,-0.488l0.013,-0.488l0.012,-0.489l0.01,-0.489l0.008,-0.489l0.007,-0.49l0.005,-0.49l0.004,-0.491l0.002,-0.491l0.001,-0.489l-0.001,-0.248l-0.002,-0.246l-0.004,-0.245l-0.005,-0.245l-0.007,-0.244l-0.009,-0.244l-0.01,-0.244l-0.011,-0.243l-0.014,-0.243l-0.014,-0.242l-0.016,-0.242l-0.018,-0.242l-0.019,-0.241l-0.021,-0.241l-0.022,-0.24l-0.023,-0.24l-0.025,-0.239l-0.027,-0.239l-0.028,-0.238l-0.029,-0.238l-0.031,-0.238l-0.033,-0.237l-0.034,-0.236l-0.035,-0.236l-0.037,-0.236l-0.038,-0.235l-0.04,-0.235l-0.041,-0.234l-0.042,-0.234l-0.044,-0.233l-0.045,-0.232l-0.047,-0.232l-0.048,-0.232l-0.05,-0.231l-0.051,-0.231l-0.052,-0.23l-0.054,-0.229l-0.055,-0.229l-0.056,-0.228l-0.058,-0.228l-0.059,-0.228l-0.061,-0.226l-0.062,-0.226l-0.063,-0.226l-0.065,-0.225l-0.066,-0.225l-0.067,-0.223l-0.069,-0.224l-0.07,-0.223l-0.071,-0.222l-0.073,-0.221l-0.074,-0.221l-0.075,-0.22l-0.077,-0.22l-0.078,-0.219l-0.079,-0.219l-0.081,-0.218l-0.082,-0.217l-0.083,-0.216l-0.084,-0.216l-0.086,-0.216l-0.087,-0.214l-0.088,-0.214l-0.089,-0.214l-0.091,-0.212l-0.092,-0.212l-0.093,-0.212l-0.095,-0.211l-0.096,-0.21l-0.097,-0.209l-0.098,-0.209l-0.099,-0.207l-0.101,-0.208l-0.102,-0.206l-0.103,-0.206l-0.104,-0.205l-0.106,-0.205l-0.106,-0.203l-0.108,-0.203l-0.109,-0.203l-0.11,-0.201l-0.112,-0.201l-0.113,-0.2l-0.113,-0.199l-0.115,-0.199l-0.116,-0.198l-0.118,-0.197l-0.118,-0.196l-0.12,-0.195l-0.12,-0.195l-0.122,-0.194l-0.123,-0.193l-0.124,-0.192l-0.126,-0.192l-0.126,-0.191l-0.128,-0.19l-0.128,-0.189l-0.13,-0.188l-0.131,-0.188l-0.132,-0.186l-0.133,-0.186l-0.134,-0.185l-0.135,-0.184l-0.136,-0.184l-0.138,-0.182l-0.138,-0.182l-0.139,-0.181l-0.141,-0.18l-0.142,-0.179l-0.142,-0.178l-0.144,-0.177l-0.145,-0.177l-0.145,-0.175l-0.147,-0.175l-0.148,-0.174l-0.149,-0.173l-0.15,-0.171l-0.151,-0.172l-0.151,-0.17l-0.153,-0.169l-0.154,-0.168l-0.155,-0.168l-0.156,-0.166l-0.157,-0.166l-0.158,-0.164l-0.158,-0.164l-0.16,-0.162l-0.161,-0.162l-0.162,-0.161l-0.162,-0.16l-0.164,-0.158l-0.164,-0.158l-0.166,-0.157l-0.166,-0.156l-0.168,-0.155l-0.168,-0.154l-0.169,-0.153l-0.17,-0.151l-0.172,-0.151l-0.171,-0.15l-0.173,-0.149l-0.174,-0.148l-0.175,-0.147l-0.175,-0.145l-0.177,-0.145l-0.177,-0.144l-0.178,-0.142l-0.179,-0.142l-0.18,-0.141l-0.181,-0.139l-0.182,-0.138l-0.182,-0.138l-0.184,-0.136l-0.184,-0.135l-0.185,-0.134l-0.186,-0.133l-0.186,-0.132l-0.188,-0.131l-0.188,-0.13l-0.189,-0.128l-0.19,-0.128l-0.191,-0.126l-0.191,-0.126l-0.193,-0.124l-0.193,-0.123l-0.194,-0.122l-0.195,-0.12l-0.195,-0.12l-0.196,-0.118l-0.197,-0.118l-0.198,-0.116l-0.199,-0.115l-0.199,-0.113l-0.2,-0.113l-0.201,-0.112l-0.201,-0.11l-0.203,-0.109l-0.203,-0.108l-0.203,-0.106l-0.205,-0.106l-0.205,-0.104l-0.206,-0.103l-0.206,-0.102l-0.207,-0.101l-0.208,-0.099l-0.209,-0.098l-0.209,-0.097l-0.21,-0.096l-0.211,-0.095l-0.212,-0.093l-0.212,-0.092l-0.212,-0.091l-0.214,-0.089l-0.214,-0.088l-0.214,-0.087l-0.216,-0.086l-0.216,-0.084l-0.216,-0.083l-0.217,-0.082l-0.218,-0.081l-0.219,-0.079l-0.219,-0.078l-0.22,-0.077l-0.22,-0.075l-0.221,-0.074l-0.221,-0.073l-0.223,-0.071l-0.222,-0.07l-0.224,-0.069l-0.223,-0.067l-0.225,-0.066l-0.225,-0.065l-0.226,-0.063l-0.226,-0.062l-0.226,-0.061l-0.228,-0.059l-0.228,-0.058l-0.228,-0.056l-0.229,-0.055l-0.229,-0.054l-0.23,-0.052l-0.231,-0.051l-0.231,-0.05l-0.232,-0.048l-0.232,-0.047l-0.232,-0.045l-0.233,-0.044l-0.234,-0.042l-0.234,-0.041l-0.235,-0.04l-0.235,-0.038l-0.235,-0.037l-0.237,-0.035l-0.236,-0.034l-0.237,-0.033l-0.238,-0.031l-0.238,-0.029l-0.238,-0.028l-0.239,-0.027l-0.239,-0.025l-0.24,-0.023l-0.24,-0.022l-0.241,-0.021l-0.241,-0.019l-0.242,-0.018l-0.242,-0.016l-0.242,-0.014l-0.243,-0.014l-0.243,-0.011l-0.244,-0.01l-0.244,-0.009l-0.244,-0.007l-0.245,-0.005l-0.245,-0.004l-0.246,-0.002l-0.248,-0.001l-0.386,0Z" style="fill:#fff;"/>
  </symbol>
</svg>
