<?xml version="1.0" encoding="UTF-8" standalone="no"?>
<!DOCTYPE svg PUBLIC "-//W3C//DTD SVG 1.1//EN" "http://www.w3.org/Graphics/SVG/1.1/DTD/svg11.dtd">
<svg width="100%" height="100%" viewBox="0 0 155 150" version="1.1" xmlns="http://www.w3.org/2000/svg" xmlns:xlink="http://www.w3.org/1999/xlink" xml:space="preserve" style="fill-rule:evenodd;clip-rule:evenodd;">
  <symbol id="wild+4" viewBox="0 0 155 150">
    <g id="g6111.-38.-2">
      <path id="rect6095.-2.-9" d="M84.386,32.5c0.395,-1.38 -0.406,-2.5 -1.785,-2.5l-55,0c-1.38,0 -2.82,1.12 -3.215,2.5l-24.285,85c-0.395,1.38 0.405,2.5 1.785,2.5l55,0c1.38,0 2.82,-1.12 3.215,-2.5l24.285,-85Z" style="fill:#fff;stroke:#000;stroke-width:1.74px;"/>
      <path id="rect6097.-5.-7" d="M71.529,42.5c0.394,-1.38 -0.406,-2.5 -1.786,-2.5l-35,0c-1.379,0 -2.82,1.12 -3.214,2.5l-18.571,65c-0.395,1.38 0.406,2.5 1.785,2.5l35,0c1.38,0 2.82,-1.12 3.215,-2.5l18.571,-65Z" style="fill:#f55;"/>
    </g>
    <g id="g6111.-62.-2.-1">
      <path id="rect6095.-14.-0.-3" d="M124.386,2.5c0.395,-1.38 -0.406,-2.5 -1.785,-2.5l-55,0c-1.38,0 -2.82,1.12 -3.215,2.5l-24.285,85c-0.395,1.38 0.405,2.5 1.785,2.5l55,0c1.38,0 2.82,-1.12 3.215,-2.5l24.285,-85Z" style="fill:#fff;stroke:#000;stroke-width:1.74px;"/>
      <path id="rect6097.-6.-3.-2" d="M111.529,12.5c0.394,-1.38 -0.406,-2.5 -1.786,-2.5l-35,0c-1.379,0 -2.82,1.12 -3.214,2.5l-18.571,65c-0.395,1.38 0.406,2.5 1.785,2.5l35,0c1.38,0 2.82,-1.12 3.215,-2.5l18.571,-65Z" style="fill:#55f;"/>
    </g>
    <g id="g6111.-3.-5">
      <path id="rect6095.-0.-3" d="M114.386,62.5c0.395,-1.38 -0.406,-2.5 -1.785,-2.5l-55,0c-1.38,0 -2.82,1.12 -3.215,2.5l-24.285,85c-0.395,1.38 0.405,2.5 1.785,2.5l55,0c1.38,0 2.82,-1.12 3.215,-2.5l24.285,-85Z" style="fill:#fff;stroke:#000;stroke-width:1.74px;"/>
      <path id="rect6097.-7.-4" d="M101.529,72.5c0.394,-1.38 -0.406,-2.5 -1.786,-2.5l-35,0c-1.379,0 -2.82,1.12 -3.214,2.5l-18.571,65c-0.395,1.38 0.406,2.5 1.785,2.5l35,0c1.38,0 2.82,-1.12 3.215,-2.5l18.571,-65Z" style="fill:#fa0;"/>
    </g>
    <g id="g6111.-62.-7.-3">
      <path id="rect6095.-14.-8.-2" d="M154.386,32.5c0.395,-1.38 -0.406,-2.5 -1.785,-2.5l-55,0c-1.38,0 -2.82,1.12 -3.215,2.5l-24.285,85c-0.395,1.38 0.405,2.5 1.785,2.5l55,0c1.38,0 2.82,-1.12 3.215,-2.5l24.285,-85Z" style="fill:#fff;stroke:#000;stroke-width:1.74px;"/>
      <path id="rect6097.-6.-7.-1" d="M141.529,42.5c0.394,-1.38 -0.406,-2.5 -1.786,-2.5l-35,0c-1.379,0 -2.82,1.12 -3.214,2.5l-18.571,65c-0.395,1.38 0.406,2.5 1.785,2.5l35,0c1.38,0 2.82,-1.12 3.215,-2.5l18.571,-65Z" style="fill:#5a5;"/>
    </g>
  </symbol>
</svg>
